<?xml version="1.0" encoding="UTF-8" standalone="no"?>
<!DOCTYPE svg PUBLIC "-//W3C//DTD SVG 1.1//EN"
 "http://www.w3.org/Graphics/SVG/1.1/DTD/svg11.dtd">
<!-- Generated by graphviz version 14.0.4 (20251115.1723)
 -->
<!-- Title: CallGraph Pages: 1 -->
<svg width="421pt" height="908pt"
 viewBox="0.00 0.00 421.00 908.00" xmlns="http://www.w3.org/2000/svg" xmlns:xlink="http://www.w3.org/1999/xlink">
<g id="graph0" class="graph" transform="scale(1 1) rotate(0) translate(4 904)">
<title>CallGraph</title>
<polygon fill="white" stroke="none" points="-4,4 -4,-904 416.5,-904 416.5,4 -4,4"/>
<!-- renderer.onRender -->
<g id="node1" class="node">
<title>renderer.onRender</title>
<path fill="#f5f5f5" stroke="black" stroke-dasharray="5,2" d="M359.25,-900C359.25,-900 287,-900 287,-900 281,-900 275,-894 275,-888 275,-888 275,-876 275,-876 275,-870 281,-864 287,-864 287,-864 359.25,-864 359.25,-864 365.25,-864 371.25,-870 371.25,-876 371.25,-876 371.25,-888 371.25,-888 371.25,-894 365.25,-900 359.25,-900"/>
<text xml:space="preserve" text-anchor="middle" x="323.12" y="-878.5" font-family="Arial" font-size="10.00">renderer.onRender</text>
</g>
<!-- glfwWindowShouldClose -->
<g id="node2" class="node">
<title>glfwWindowShouldClose</title>
<path fill="#f5f5f5" stroke="black" stroke-dasharray="5,2" d="M373.5,-846C373.5,-846 272.75,-846 272.75,-846 266.75,-846 260.75,-840 260.75,-834 260.75,-834 260.75,-822 260.75,-822 260.75,-816 266.75,-810 272.75,-810 272.75,-810 373.5,-810 373.5,-810 379.5,-810 385.5,-816 385.5,-822 385.5,-822 385.5,-834 385.5,-834 385.5,-840 379.5,-846 373.5,-846"/>
<text xml:space="preserve" text-anchor="middle" x="323.12" y="-824.5" font-family="Arial" font-size="10.00">glfwWindowShouldClose</text>
</g>
<!-- pieceManager.onUpdate -->
<g id="node3" class="node">
<title>pieceManager.onUpdate</title>
<path fill="#f5f5f5" stroke="black" stroke-dasharray="5,2" d="M372,-792C372,-792 274.25,-792 274.25,-792 268.25,-792 262.25,-786 262.25,-780 262.25,-780 262.25,-768 262.25,-768 262.25,-762 268.25,-756 274.25,-756 274.25,-756 372,-756 372,-756 378,-756 384,-762 384,-768 384,-768 384,-780 384,-780 384,-786 378,-792 372,-792"/>
<text xml:space="preserve" text-anchor="middle" x="323.12" y="-770.5" font-family="Arial" font-size="10.00">pieceManager.onUpdate</text>
</g>
<!-- glfwSwapBuffers -->
<g id="node4" class="node">
<title>glfwSwapBuffers</title>
<path fill="#f5f5f5" stroke="black" stroke-dasharray="5,2" d="M355.88,-738C355.88,-738 290.38,-738 290.38,-738 284.38,-738 278.38,-732 278.38,-726 278.38,-726 278.38,-714 278.38,-714 278.38,-708 284.38,-702 290.38,-702 290.38,-702 355.88,-702 355.88,-702 361.88,-702 367.88,-708 367.88,-714 367.88,-714 367.88,-726 367.88,-726 367.88,-732 361.88,-738 355.88,-738"/>
<text xml:space="preserve" text-anchor="middle" x="323.12" y="-716.5" font-family="Arial" font-size="10.00">glfwSwapBuffers</text>
</g>
<!-- glfwPollEvents -->
<g id="node5" class="node">
<title>glfwPollEvents</title>
<path fill="#f5f5f5" stroke="black" stroke-dasharray="5,2" d="M351.75,-684C351.75,-684 294.5,-684 294.5,-684 288.5,-684 282.5,-678 282.5,-672 282.5,-672 282.5,-660 282.5,-660 282.5,-654 288.5,-648 294.5,-648 294.5,-648 351.75,-648 351.75,-648 357.75,-648 363.75,-654 363.75,-660 363.75,-660 363.75,-672 363.75,-672 363.75,-678 357.75,-684 351.75,-684"/>
<text xml:space="preserve" text-anchor="middle" x="323.12" y="-662.5" font-family="Arial" font-size="10.00">glfwPollEvents</text>
</g>
<!-- renderer.shutdown -->
<g id="node6" class="node">
<title>renderer.shutdown</title>
<path fill="#f5f5f5" stroke="black" stroke-dasharray="5,2" d="M359.25,-630C359.25,-630 287,-630 287,-630 281,-630 275,-624 275,-618 275,-618 275,-606 275,-606 275,-600 281,-594 287,-594 287,-594 359.25,-594 359.25,-594 365.25,-594 371.25,-600 371.25,-606 371.25,-606 371.25,-618 371.25,-618 371.25,-624 365.25,-630 359.25,-630"/>
<text xml:space="preserve" text-anchor="middle" x="323.12" y="-608.5" font-family="Arial" font-size="10.00">renderer.shutdown</text>
</g>
<!-- sceneManager.createFirstScene -->
<g id="node7" class="node">
<title>sceneManager.createFirstScene</title>
<path fill="#f5f5f5" stroke="black" stroke-dasharray="5,2" d="M389.62,-576C389.62,-576 256.62,-576 256.62,-576 250.62,-576 244.62,-570 244.62,-564 244.62,-564 244.62,-552 244.62,-552 244.62,-546 250.62,-540 256.62,-540 256.62,-540 389.62,-540 389.62,-540 395.62,-540 401.62,-546 401.62,-552 401.62,-552 401.62,-564 401.62,-564 401.62,-570 395.62,-576 389.62,-576"/>
<text xml:space="preserve" text-anchor="middle" x="323.12" y="-554.5" font-family="Arial" font-size="10.00">sceneManager.createFirstScene</text>
</g>
<!-- me.raven.Sandbox.Managers.GameManager.loop -->
<g id="node8" class="node">
<title>me.raven.Sandbox.Managers.GameManager.loop</title>
<path fill="#e8f5e9" stroke="black" d="M185.75,-468C185.75,-468 109,-468 109,-468 103,-468 97,-462 97,-456 97,-456 97,-444 97,-444 97,-438 103,-432 109,-432 109,-432 185.75,-432 185.75,-432 191.75,-432 197.75,-438 197.75,-444 197.75,-444 197.75,-456 197.75,-456 197.75,-462 191.75,-468 185.75,-468"/>
<text xml:space="preserve" text-anchor="middle" x="147.38" y="-446.5" font-family="Arial" font-size="10.00">GameManager.loop</text>
</g>
<!-- me.raven.Sandbox.Managers.GameManager.loop&#45;&gt;renderer.onRender -->
<g id="edge12" class="edge">
<title>me.raven.Sandbox.Managers.GameManager.loop&#45;&gt;renderer.onRender</title>
<path fill="none" stroke="black" d="M149.8,-468.31C155.69,-539.5 180.39,-796.68 233.75,-855 241.79,-863.79 252.61,-869.75 263.91,-873.79"/>
<polygon fill="black" stroke="black" points="262.78,-877.1 273.37,-876.66 264.81,-870.41 262.78,-877.1"/>
</g>
<!-- me.raven.Sandbox.Managers.GameManager.loop&#45;&gt;glfwWindowShouldClose -->
<g id="edge5" class="edge">
<title>me.raven.Sandbox.Managers.GameManager.loop&#45;&gt;glfwWindowShouldClose</title>
<path fill="none" stroke="black" d="M150.41,-468.06C158.04,-532.72 186.94,-751.4 233.75,-801 238.52,-806.05 244.2,-810.17 250.36,-813.52"/>
<polygon fill="black" stroke="black" points="248.44,-816.49 258.98,-817.54 251.4,-810.14 248.44,-816.49"/>
</g>
<!-- me.raven.Sandbox.Managers.GameManager.loop&#45;&gt;pieceManager.onUpdate -->
<g id="edge10" class="edge">
<title>me.raven.Sandbox.Managers.GameManager.loop&#45;&gt;pieceManager.onUpdate</title>
<path fill="none" stroke="black" d="M148,-468.27C147.98,-519.69 155.12,-667.06 233.75,-747 238.97,-752.3 245.19,-756.57 251.89,-760"/>
<polygon fill="black" stroke="black" points="250.03,-763.01 260.59,-763.85 252.86,-756.61 250.03,-763.01"/>
</g>
<!-- me.raven.Sandbox.Managers.GameManager.loop&#45;&gt;glfwSwapBuffers -->
<g id="edge13" class="edge">
<title>me.raven.Sandbox.Managers.GameManager.loop&#45;&gt;glfwSwapBuffers</title>
<path fill="none" stroke="black" d="M149.36,-468.19C152.8,-513.04 167.93,-629.85 233.75,-693 242.97,-701.85 255.01,-707.8 267.22,-711.81"/>
<polygon fill="black" stroke="black" points="265.9,-715.07 276.48,-714.44 267.82,-708.34 265.9,-715.07"/>
</g>
<!-- me.raven.Sandbox.Managers.GameManager.loop&#45;&gt;glfwPollEvents -->
<g id="edge14" class="edge">
<title>me.raven.Sandbox.Managers.GameManager.loop&#45;&gt;glfwPollEvents</title>
<path fill="none" stroke="black" d="M151.46,-468.31C158.76,-505.92 180.63,-592.27 233.75,-639 244.2,-648.19 257.71,-654.25 271,-658.25"/>
<polygon fill="black" stroke="black" points="270.03,-661.61 280.59,-660.76 271.8,-654.84 270.03,-661.61"/>
</g>
<!-- me.raven.Sandbox.Managers.GameManager.loop&#45;&gt;renderer.shutdown -->
<g id="edge16" class="edge">
<title>me.raven.Sandbox.Managers.GameManager.loop&#45;&gt;renderer.shutdown</title>
<path fill="none" stroke="black" d="M155.02,-468.21C166.54,-497.24 192.96,-553.88 233.75,-585 242.65,-591.79 253.26,-596.88 263.98,-600.7"/>
<polygon fill="black" stroke="black" points="262.66,-603.95 273.25,-603.65 264.78,-597.28 262.66,-603.95"/>
</g>
<!-- me.raven.Sandbox.Managers.GameManager.loop&#45;&gt;sceneManager.createFirstScene -->
<g id="edge3" class="edge">
<title>me.raven.Sandbox.Managers.GameManager.loop&#45;&gt;sceneManager.createFirstScene</title>
<path fill="none" stroke="black" d="M163.18,-468.34C178.89,-486.67 205.33,-514.43 233.75,-531 236.09,-532.36 238.5,-533.66 240.97,-534.91"/>
<polygon fill="black" stroke="black" points="239.46,-538.06 250.01,-539.04 242.38,-531.7 239.46,-538.06"/>
</g>
<!-- GL.createCapabilities -->
<g id="node9" class="node">
<title>GL.createCapabilities</title>
<path fill="#f5f5f5" stroke="black" stroke-dasharray="5,2" d="M366,-522C366,-522 280.25,-522 280.25,-522 274.25,-522 268.25,-516 268.25,-510 268.25,-510 268.25,-498 268.25,-498 268.25,-492 274.25,-486 280.25,-486 280.25,-486 366,-486 366,-486 372,-486 378,-492 378,-498 378,-498 378,-510 378,-510 378,-516 372,-522 366,-522"/>
<text xml:space="preserve" text-anchor="middle" x="323.12" y="-500.5" font-family="Arial" font-size="10.00">GL.createCapabilities</text>
</g>
<!-- me.raven.Sandbox.Managers.GameManager.loop&#45;&gt;GL.createCapabilities -->
<g id="edge1" class="edge">
<title>me.raven.Sandbox.Managers.GameManager.loop&#45;&gt;GL.createCapabilities</title>
<path fill="none" stroke="black" d="M198.01,-465.79C209.72,-469.49 222.17,-473.4 233.75,-477 241.25,-479.33 249.11,-481.76 256.92,-484.16"/>
<polygon fill="black" stroke="black" points="255.85,-487.49 266.44,-487.08 257.9,-480.8 255.85,-487.49"/>
</g>
<!-- glClearColor -->
<g id="node10" class="node">
<title>glClearColor</title>
<path fill="#f5f5f5" stroke="black" stroke-dasharray="5,2" d="M346.12,-468C346.12,-468 300.12,-468 300.12,-468 294.12,-468 288.12,-462 288.12,-456 288.12,-456 288.12,-444 288.12,-444 288.12,-438 294.12,-432 300.12,-432 300.12,-432 346.12,-432 346.12,-432 352.12,-432 358.12,-438 358.12,-444 358.12,-444 358.12,-456 358.12,-456 358.12,-462 352.12,-468 346.12,-468"/>
<text xml:space="preserve" text-anchor="middle" x="323.12" y="-446.5" font-family="Arial" font-size="10.00">glClearColor</text>
</g>
<!-- me.raven.Sandbox.Managers.GameManager.loop&#45;&gt;glClearColor -->
<g id="edge2" class="edge">
<title>me.raven.Sandbox.Managers.GameManager.loop&#45;&gt;glClearColor</title>
<path fill="none" stroke="black" d="M198.16,-450C222.81,-450 252.36,-450 276.43,-450"/>
<polygon fill="black" stroke="black" points="276.24,-453.5 286.24,-450 276.24,-446.5 276.24,-453.5"/>
</g>
<!-- renderer.createTextureBatchRenderer -->
<g id="node11" class="node">
<title>renderer.createTextureBatchRenderer</title>
<path fill="#f5f5f5" stroke="black" stroke-dasharray="5,2" d="M400.5,-414C400.5,-414 245.75,-414 245.75,-414 239.75,-414 233.75,-408 233.75,-402 233.75,-402 233.75,-390 233.75,-390 233.75,-384 239.75,-378 245.75,-378 245.75,-378 400.5,-378 400.5,-378 406.5,-378 412.5,-384 412.5,-390 412.5,-390 412.5,-402 412.5,-402 412.5,-408 406.5,-414 400.5,-414"/>
<text xml:space="preserve" text-anchor="middle" x="323.12" y="-392.5" font-family="Arial" font-size="10.00">renderer.createTextureBatchRenderer</text>
</g>
<!-- me.raven.Sandbox.Managers.GameManager.loop&#45;&gt;renderer.createTextureBatchRenderer -->
<g id="edge4" class="edge">
<title>me.raven.Sandbox.Managers.GameManager.loop&#45;&gt;renderer.createTextureBatchRenderer</title>
<path fill="none" stroke="black" d="M198.01,-434.21C209.72,-430.51 222.17,-426.6 233.75,-423 239.4,-421.24 245.25,-419.43 251.14,-417.62"/>
<polygon fill="black" stroke="black" points="251.75,-421.1 260.28,-414.81 249.69,-414.4 251.75,-421.1"/>
</g>
<!-- window.getWindow -->
<g id="node12" class="node">
<title>window.getWindow</title>
<path fill="#f5f5f5" stroke="black" stroke-dasharray="5,2" d="M361.12,-360C361.12,-360 285.12,-360 285.12,-360 279.12,-360 273.12,-354 273.12,-348 273.12,-348 273.12,-336 273.12,-336 273.12,-330 279.12,-324 285.12,-324 285.12,-324 361.12,-324 361.12,-324 367.12,-324 373.12,-330 373.12,-336 373.12,-336 373.12,-348 373.12,-348 373.12,-354 367.12,-360 361.12,-360"/>
<text xml:space="preserve" text-anchor="middle" x="323.12" y="-338.5" font-family="Arial" font-size="10.00">window.getWindow</text>
</g>
<!-- me.raven.Sandbox.Managers.GameManager.loop&#45;&gt;window.getWindow -->
<g id="edge6" class="edge">
<title>me.raven.Sandbox.Managers.GameManager.loop&#45;&gt;window.getWindow</title>
<path fill="none" stroke="black" d="M163.18,-431.66C178.89,-413.33 205.33,-385.57 233.75,-369 242.41,-363.95 252.11,-359.76 261.82,-356.3"/>
<polygon fill="black" stroke="black" points="262.89,-359.64 271.3,-353.19 260.71,-352.99 262.89,-359.64"/>
</g>
<!-- glClear -->
<g id="node13" class="node">
<title>glClear</title>
<path fill="#f5f5f5" stroke="black" stroke-dasharray="5,2" d="M338.12,-306C338.12,-306 308.12,-306 308.12,-306 302.12,-306 296.12,-300 296.12,-294 296.12,-294 296.12,-282 296.12,-282 296.12,-276 302.12,-270 308.12,-270 308.12,-270 338.12,-270 338.12,-270 344.12,-270 350.12,-276 350.12,-282 350.12,-282 350.12,-294 350.12,-294 350.12,-300 344.12,-306 338.12,-306"/>
<text xml:space="preserve" text-anchor="middle" x="323.12" y="-284.5" font-family="Arial" font-size="10.00">glClear</text>
</g>
<!-- me.raven.Sandbox.Managers.GameManager.loop&#45;&gt;glClear -->
<g id="edge7" class="edge">
<title>me.raven.Sandbox.Managers.GameManager.loop&#45;&gt;glClear</title>
<path fill="none" stroke="black" d="M155.02,-431.79C166.54,-402.76 192.96,-346.12 233.75,-315 248.47,-303.77 267.87,-297.18 284.74,-293.33"/>
<polygon fill="black" stroke="black" points="285.34,-296.78 294.45,-291.37 283.96,-289.92 285.34,-296.78"/>
</g>
<!-- boardManager.onUpdate -->
<g id="node14" class="node">
<title>boardManager.onUpdate</title>
<path fill="#f5f5f5" stroke="black" stroke-dasharray="5,2" d="M372.38,-252C372.38,-252 273.88,-252 273.88,-252 267.88,-252 261.88,-246 261.88,-240 261.88,-240 261.88,-228 261.88,-228 261.88,-222 267.88,-216 273.88,-216 273.88,-216 372.38,-216 372.38,-216 378.38,-216 384.38,-222 384.38,-228 384.38,-228 384.38,-240 384.38,-240 384.38,-246 378.38,-252 372.38,-252"/>
<text xml:space="preserve" text-anchor="middle" x="323.12" y="-230.5" font-family="Arial" font-size="10.00">boardManager.onUpdate</text>
</g>
<!-- me.raven.Sandbox.Managers.GameManager.loop&#45;&gt;boardManager.onUpdate -->
<g id="edge8" class="edge">
<title>me.raven.Sandbox.Managers.GameManager.loop&#45;&gt;boardManager.onUpdate</title>
<path fill="none" stroke="black" d="M151.46,-431.69C158.76,-394.08 180.63,-307.73 233.75,-261 238.97,-256.41 244.95,-252.6 251.29,-249.44"/>
<polygon fill="black" stroke="black" points="252.33,-252.8 260.09,-245.59 249.53,-246.39 252.33,-252.8"/>
</g>
<!-- boardManager.onRender -->
<g id="node15" class="node">
<title>boardManager.onRender</title>
<path fill="#f5f5f5" stroke="black" stroke-dasharray="5,2" d="M372.38,-198C372.38,-198 273.88,-198 273.88,-198 267.88,-198 261.88,-192 261.88,-186 261.88,-186 261.88,-174 261.88,-174 261.88,-168 267.88,-162 273.88,-162 273.88,-162 372.38,-162 372.38,-162 378.38,-162 384.38,-168 384.38,-174 384.38,-174 384.38,-186 384.38,-186 384.38,-192 378.38,-198 372.38,-198"/>
<text xml:space="preserve" text-anchor="middle" x="323.12" y="-176.5" font-family="Arial" font-size="10.00">boardManager.onRender</text>
</g>
<!-- me.raven.Sandbox.Managers.GameManager.loop&#45;&gt;boardManager.onRender -->
<g id="edge9" class="edge">
<title>me.raven.Sandbox.Managers.GameManager.loop&#45;&gt;boardManager.onRender</title>
<path fill="none" stroke="black" d="M149.36,-431.81C152.8,-386.96 167.93,-270.15 233.75,-207 238.84,-202.12 244.79,-198.11 251.15,-194.83"/>
<polygon fill="black" stroke="black" points="252.33,-198.14 260.04,-190.87 249.48,-191.74 252.33,-198.14"/>
</g>
<!-- pieceManager.onRender -->
<g id="node16" class="node">
<title>pieceManager.onRender</title>
<path fill="#f5f5f5" stroke="black" stroke-dasharray="5,2" d="M372,-144C372,-144 274.25,-144 274.25,-144 268.25,-144 262.25,-138 262.25,-132 262.25,-132 262.25,-120 262.25,-120 262.25,-114 268.25,-108 274.25,-108 274.25,-108 372,-108 372,-108 378,-108 384,-114 384,-120 384,-120 384,-132 384,-132 384,-138 378,-144 372,-144"/>
<text xml:space="preserve" text-anchor="middle" x="323.12" y="-122.5" font-family="Arial" font-size="10.00">pieceManager.onRender</text>
</g>
<!-- me.raven.Sandbox.Managers.GameManager.loop&#45;&gt;pieceManager.onRender -->
<g id="edge11" class="edge">
<title>me.raven.Sandbox.Managers.GameManager.loop&#45;&gt;pieceManager.onRender</title>
<path fill="none" stroke="black" d="M148,-431.73C147.98,-380.31 155.12,-232.94 233.75,-153 238.97,-147.7 245.19,-143.43 251.89,-140"/>
<polygon fill="black" stroke="black" points="252.86,-143.39 260.59,-136.15 250.03,-136.99 252.86,-143.39"/>
</g>
<!-- DeltaTime.calculate -->
<g id="node17" class="node">
<title>DeltaTime.calculate</title>
<path fill="#f5f5f5" stroke="black" stroke-dasharray="5,2" d="M362.62,-90C362.62,-90 283.62,-90 283.62,-90 277.62,-90 271.62,-84 271.62,-78 271.62,-78 271.62,-66 271.62,-66 271.62,-60 277.62,-54 283.62,-54 283.62,-54 362.62,-54 362.62,-54 368.62,-54 374.62,-60 374.62,-66 374.62,-66 374.62,-78 374.62,-78 374.62,-84 368.62,-90 362.62,-90"/>
<text xml:space="preserve" text-anchor="middle" x="323.12" y="-68.5" font-family="Arial" font-size="10.00">DeltaTime.calculate</text>
</g>
<!-- me.raven.Sandbox.Managers.GameManager.loop&#45;&gt;DeltaTime.calculate -->
<g id="edge15" class="edge">
<title>me.raven.Sandbox.Managers.GameManager.loop&#45;&gt;DeltaTime.calculate</title>
<path fill="none" stroke="black" d="M150.41,-431.94C158.04,-367.28 186.94,-148.6 233.75,-99 241.1,-91.21 250.64,-85.64 260.71,-81.67"/>
<polygon fill="black" stroke="black" points="261.55,-85.09 269.9,-78.57 259.31,-78.45 261.55,-85.09"/>
</g>
<!-- end -->
<g id="node18" class="node">
<title>end</title>
<path fill="#f5f5f5" stroke="black" stroke-dasharray="5,2" d="M338.12,-36C338.12,-36 308.12,-36 308.12,-36 302.12,-36 296.12,-30 296.12,-24 296.12,-24 296.12,-12 296.12,-12 296.12,-6 302.12,0 308.12,0 308.12,0 338.12,0 338.12,0 344.12,0 350.12,-6 350.12,-12 350.12,-12 350.12,-24 350.12,-24 350.12,-30 344.12,-36 338.12,-36"/>
<text xml:space="preserve" text-anchor="middle" x="323.12" y="-14.5" font-family="Arial" font-size="10.00">end</text>
</g>
<!-- me.raven.Sandbox.Managers.GameManager.loop&#45;&gt;end -->
<g id="edge17" class="edge">
<title>me.raven.Sandbox.Managers.GameManager.loop&#45;&gt;end</title>
<path fill="none" stroke="black" d="M149.8,-431.69C155.69,-360.5 180.39,-103.32 233.75,-45 246.72,-30.82 266.9,-24 284.7,-20.76"/>
<polygon fill="black" stroke="black" points="285.07,-24.24 294.46,-19.32 284.05,-17.31 285.07,-24.24"/>
</g>
<!-- me.raven.Main.main -->
<g id="node19" class="node">
<title>me.raven.Main.main</title>
<path fill="#e8f5e9" stroke="black" d="M49,-468C49,-468 12,-468 12,-468 6,-468 0,-462 0,-456 0,-456 0,-444 0,-444 0,-438 6,-432 12,-432 12,-432 49,-432 49,-432 55,-432 61,-438 61,-444 61,-444 61,-456 61,-456 61,-462 55,-468 49,-468"/>
<text xml:space="preserve" text-anchor="middle" x="30.5" y="-446.5" font-family="Arial" font-size="10.00">Main.main</text>
</g>
<!-- me.raven.Main.main&#45;&gt;me.raven.Sandbox.Managers.GameManager.loop -->
<g id="edge18" class="edge">
<title>me.raven.Main.main&#45;&gt;me.raven.Sandbox.Managers.GameManager.loop</title>
<path fill="none" stroke="black" d="M61.38,-450C68.79,-450 76.99,-450 85.3,-450"/>
<polygon fill="black" stroke="black" points="85.11,-453.5 95.11,-450 85.11,-446.5 85.11,-453.5"/>
</g>
</g>
</svg>
